<svg width="76" height="24" viewBox="0 0 76 24" fill="none" xmlns="http://www.w3.org/2000/svg">
<path d="M9.98401 0C4.63201 0 0.984009 3.648 0.984009 9C0.984009 14.256 4.70401 17.856 9.98401 17.856C12.36 17.856 14.736 17.376 16.992 16.176V7.488H10.488V10.224H13.968V14.232C12.768 14.904 11.28 15.12 10.008 15.12C6.36001 15.12 4.15201 12.312 4.15201 8.808C4.15201 5.424 6.50401 2.736 9.98401 2.736C11.568 2.736 13.272 3.288 14.424 4.392L16.656 2.136C14.856 0.503999 12.336 0 9.98401 0Z" fill="#222222"/>
<path d="M25.6477 5.616C24.1357 5.616 22.8637 6.408 22.2397 7.728H22.1917V5.904H19.3117V17.424H22.1917V11.424C22.1917 9.888 23.1037 8.352 25.2877 8.352C25.7197 8.352 26.1277 8.424 26.6797 8.568V5.784C26.2957 5.688 26.0797 5.616 25.6477 5.616Z" fill="#222222"/>
<path d="M32.5118 5.616C30.2558 5.616 28.6478 6.408 27.6158 7.464L29.1278 8.976C29.9198 8.256 30.9998 7.776 32.1998 7.776C33.7838 7.776 34.8398 8.568 34.8398 9.912V10.248H33.9518C29.0078 10.248 26.8718 11.592 26.8718 14.256C26.8718 16.368 28.6958 17.712 31.0718 17.712C32.6078 17.712 33.9518 17.136 34.7678 15.84H34.8398V17.424H37.4318V10.536C37.4318 7.824 36.4478 5.616 32.5118 5.616ZM29.7518 14.04C29.7518 12.816 31.2878 12.264 33.8318 12.264H34.6718V12.984C34.6718 14.448 33.7598 15.552 31.7918 15.552C30.7118 15.552 29.7518 15.024 29.7518 14.04Z" fill="#222222"/>
<path d="M37.9704 5.904L42.6744 17.424H45.7464L50.2824 5.904H47.3304L44.2344 13.968H44.1864L41.1144 5.904H37.9704Z" fill="#222222"/>
<path d="M52.4398 0.263999C51.4078 0.263999 50.6158 1.056 50.6158 1.992C50.6158 2.928 51.4078 3.72 52.4398 3.72C53.4718 3.72 54.3118 3.024 54.3118 1.992C54.3118 1.008 53.4958 0.263999 52.4398 0.263999ZM51.0238 5.904V17.424H53.9038V5.904H51.0238Z" fill="#222222"/>
<path d="M57.2421 2.568V5.904H54.8661V8.352H57.2421V13.752C57.2421 16.656 58.2981 17.712 61.0101 17.712C61.6581 17.712 62.7381 17.592 63.2901 17.328V14.904C63.0501 15.096 62.4501 15.264 61.7301 15.264C60.6021 15.264 60.1221 14.688 60.1221 13.464V8.352H63.2901V5.904H60.1221V2.568H57.2421Z" fill="#222222"/>
<path d="M62.9783 5.904L67.8983 17.52L67.3943 18.768C66.8663 20.04 66.5783 20.592 65.0663 20.592C64.5623 20.592 64.0583 20.472 63.6023 20.304L63.2423 22.896C63.9623 23.088 64.7063 23.184 65.4503 23.184C68.3303 23.184 69.0983 21.768 70.0343 19.392L75.2903 5.904H72.2903L69.4103 13.896H69.3623L66.1463 5.904H62.9783Z" fill="#222222"/>
</svg>
